<?xml version="1.0" standalone="no"?>
<!DOCTYPE svg PUBLIC "-//W3C//DTD SVG 20010904//EN"
 "http://www.w3.org/TR/2001/REC-SVG-20010904/DTD/svg10.dtd">
<svg version="1.0" xmlns="http://www.w3.org/2000/svg"
 width="400.000000pt" height="400.000000pt" viewBox="0 0 400.000000 400.000000"
 preserveAspectRatio="xMidYMid meet">
<metadata>
Created by potrace 1.14, written by Peter Selinger 2001-2017
</metadata>
<g transform="translate(0.000000,400.000000) scale(0.100000,-0.100000)"
fill="#000000" stroke="none">
<path d="M1471 3653 c-18 -21 -37 -53 -43 -70 -7 -18 -16 -33 -20 -33 -4 0 -8
-6 -8 -14 0 -7 -7 -19 -15 -26 -9 -7 -13 -15 -10 -18 2 -3 -4 -19 -14 -36 -11
-17 -20 -34 -20 -39 0 -4 -8 -21 -16 -37 -9 -17 -13 -30 -9 -30 4 0 2 -6 -4
-12 -14 -18 -84 -197 -110 -283 -26 -87 -71 -276 -79 -330 -2 -22 -6 -51 -8
-65 -14 -95 -16 -229 -4 -330 14 -127 15 -175 4 -332 -6 -88 -5 -114 9 -147
12 -31 13 -47 5 -68 -6 -15 -7 -25 -4 -21 20 20 94 -104 75 -126 -14 -18 6
-36 38 -36 13 0 48 -33 54 -50 5 -15 -27 -43 -69 -60 -13 -5 -23 -14 -23 -20
0 -6 -4 -9 -9 -6 -5 3 -21 -4 -37 -17 -16 -12 -31 -21 -34 -19 -3 2 -11 -6
-19 -17 -13 -20 -12 -21 17 -18 17 2 43 12 59 23 15 10 30 19 33 19 3 1 19 8
35 17 17 9 49 21 72 28 41 13 44 12 110 -28 37 -23 89 -50 114 -62 26 -11 49
-27 53 -35 6 -16 -3 -74 -14 -90 -3 -5 -12 -30 -20 -55 -13 -46 -53 -144 -95
-235 -12 -27 -26 -61 -29 -75 -13 -48 -115 -260 -129 -271 -5 -3 -8 -8 -7 -10
1 -2 -14 -36 -33 -76 -19 -39 -32 -74 -29 -77 3 -3 0 -6 -7 -6 -6 0 -16 -11
-21 -25 -6 -14 -15 -37 -22 -52 -6 -16 -12 -30 -12 -33 -1 -3 -4 -10 -8 -15
-9 -14 -47 -125 -51 -150 -2 -11 -9 -33 -16 -50 -16 -38 -31 -117 -25 -127 3
-5 367 -8 810 -8 443 0 803 3 800 8 -2 4 -7 37 -10 72 -3 36 -8 76 -11 90 -2
14 -7 39 -11 55 -3 17 -26 90 -50 164 -24 73 -51 163 -59 200 -9 36 -20 84
-25 106 -17 73 -44 210 -54 275 -3 19 -10 60 -16 90 -6 30 -13 103 -17 161
l-6 105 30 13 c17 7 37 14 44 15 13 3 50 16 89 33 8 3 17 7 20 7 11 2 86 51
92 60 5 7 8 7 8 1 0 -5 4 -4 9 3 17 28 116 18 206 -19 34 -14 30 -13 73 -23
17 -4 32 -11 32 -16 0 -4 15 -11 33 -14 18 -3 50 -15 71 -27 21 -11 43 -18 49
-16 13 4 -32 47 -50 47 -7 0 -13 5 -13 10 0 6 -6 10 -14 10 -7 0 -33 8 -57 19
-64 27 -82 34 -99 37 -8 1 -45 13 -83 25 -77 26 -79 32 -26 91 l37 41 118 -7
c66 -4 130 -8 144 -10 54 -7 105 -19 115 -26 6 -5 27 -11 48 -15 32 -6 36 -5
31 9 -4 9 -9 14 -12 12 -3 -3 -10 -2 -16 3 -22 17 -127 41 -203 46 -154 11
-198 16 -206 24 -12 12 9 74 31 94 28 24 128 40 259 41 85 1 123 5 123 12 0
22 -100 25 -283 9 -37 -3 -71 -4 -76 -1 -4 3 -3 27 4 53 17 67 9 210 -16 290
-6 18 -8 57 -4 85 18 146 12 498 -9 618 -21 114 -26 139 -35 168 -5 17 -8 32
-5 32 3 0 0 8 -5 19 -6 10 -13 33 -16 51 -3 18 -9 38 -13 44 -3 6 -8 16 -9 21
-1 6 -16 57 -33 115 -17 58 -32 110 -34 115 -5 19 -46 110 -62 140 -45 82
-107 112 -163 79 -17 -10 -34 -26 -37 -36 -3 -10 -9 -18 -15 -18 -5 0 -15 -15
-22 -32 -8 -18 -23 -53 -34 -78 -38 -84 -62 -147 -72 -186 -5 -21 -19 -64 -31
-94 -12 -30 -23 -64 -25 -75 -3 -11 -11 -40 -20 -65 -14 -45 -58 -190 -59
-200 -1 -3 -5 -11 -9 -17 -5 -7 -5 -13 -2 -13 4 0 -3 -13 -15 -30 -21 -29 -21
-29 -123 -30 -56 0 -114 -2 -129 -5 -32 -6 -42 7 -44 55 -1 19 -7 47 -13 63
-6 15 -9 27 -6 27 2 0 -2 18 -10 40 -8 22 -12 40 -9 40 2 0 -1 10 -8 23 -12
22 -15 33 -22 72 -6 36 -36 119 -57 157 -11 21 -20 40 -20 43 1 3 -10 29 -23
57 -21 47 -38 93 -41 108 0 3 -7 16 -15 30 -7 14 -12 26 -11 28 1 1 -6 19 -15
40 -34 76 -58 120 -65 116 -4 -2 -9 3 -13 11 -3 10 -19 15 -45 15 -34 0 -44
-6 -70 -37z"/>
</g>
</svg>
